<?xml version="1.0" encoding="utf-8"?><svg xmlns="http://www.w3.org/2000/svg" xmlns:xlink="http://www.w3.org/1999/xlink"><symbol viewBox="0 0 36 28" id="ic-arrow-left-big" xmlns="http://www.w3.org/2000/svg"><path clip-rule="evenodd" d="M15.414 27.414a2 2 0 0 1-2.828 0l-12-12a2 2 0 0 1 0-2.828l12-12a2 2 0 0 1 2.828 2.828L6.828 12H34a2 2 0 1 1 0 4H6.828l8.586 8.586a2 2 0 0 1 0 2.828z"/></symbol><symbol viewBox="0 0 24 20" id="ic-arrow-left-portfolio" xmlns="http://www.w3.org/2000/svg"><path fill-rule="evenodd" clip-rule="evenodd" d="M10.707 19.707a1 1 0 0 1-1.414 0l-9-9a1 1 0 0 1 0-1.414l9-9a1 1 0 1 1 1.414 1.414L3.414 9H23a1 1 0 1 1 0 2H3.414l7.293 7.293a1 1 0 0 1 0 1.414z"/></symbol><symbol viewBox="0 0 24 20" id="ic-arrow-right" xmlns="http://www.w3.org/2000/svg"><path clip-rule="evenodd" d="M13.293.293a1 1 0 0 1 1.414 0l9 9a1 1 0 0 1 0 1.414l-9 9a1 1 0 0 1-1.414-1.414L20.586 11H1a1 1 0 1 1 0-2h19.586l-7.293-7.293a1 1 0 0 1 0-1.414z"/></symbol><symbol viewBox="0 0 36 28" id="ic-arrow-right-big" xmlns="http://www.w3.org/2000/svg"><path clip-rule="evenodd" d="M20.586.586a2 2 0 0 1 2.828 0l12 12a2 2 0 0 1 0 2.828l-12 12a2 2 0 1 1-2.828-2.828L29.172 16H2a2 2 0 1 1 0-4h27.172l-8.586-8.586a2 2 0 0 1 0-2.828z"/></symbol><symbol viewBox="0 0 20 22" id="ic-attach" xmlns="http://www.w3.org/2000/svg"><path d="M9.237 9.828A.764.764 0 0 0 8.158 8.75l-4.037 4.037a3.56 3.56 0 0 0-1.06 2.55c0 .967.371 1.86 1.06 2.548 1.414 1.414 3.702 1.414 5.098 0l9.116-9.116a4.996 4.996 0 0 0 1.47-3.554c0-1.34-.521-2.604-1.47-3.553a5.03 5.03 0 0 0-7.126 0l-9.097 9.097a6.416 6.416 0 0 0-1.898 4.577c0 1.73.67 3.368 1.898 4.577a6.416 6.416 0 0 0 4.576 1.898c1.73 0 3.368-.67 4.577-1.898l4.037-4.037a.764.764 0 0 0-1.079-1.08l-4.037 4.038a4.927 4.927 0 0 1-3.498 1.451 4.927 4.927 0 0 1-3.497-1.451 4.927 4.927 0 0 1-1.452-3.498c0-1.32.521-2.567 1.452-3.498l9.097-9.097a3.461 3.461 0 0 1 2.475-1.023c.93 0 1.823.372 2.474 1.023a3.461 3.461 0 0 1 1.023 2.474 3.51 3.51 0 0 1-1.023 2.475l-9.116 9.116c-.8.8-2.121.8-2.94 0a2.07 2.07 0 0 1 0-2.94l4.056-4.037z"/></symbol><symbol viewBox="0 0 21 15" id="ic-email" xmlns="http://www.w3.org/2000/svg"><path d="M10.5 10.5L7.902 8.226.474 14.593c.27.25.635.407 1.037.407H19.49c.4 0 .763-.156 1.032-.407l-7.424-6.367L10.5 10.5z"/><path d="M20.526.406A1.51 1.51 0 0 0 19.49 0H1.51A1.5 1.5 0 0 0 .478.41L10.5 9 20.526.406zM0 1.316v12.462l7.25-6.16L0 1.316zm13.75 6.303l7.25 6.16V1.313l-7.25 6.306z"/></symbol><symbol viewBox="0 0 32 26" id="ic-envelope" xmlns="http://www.w3.org/2000/svg"><path d="M28.202.848H3.798C1.704.848 0 2.484 0 4.495v17.01c0 2.011 1.704 3.647 3.798 3.647h24.404c2.094 0 3.798-1.636 3.798-3.647V4.495C32 2.484 30.296.848 28.202.848zm0 21.084H3.798c-.308 0-.578-.2-.578-.427V6.745l11.037 9.318c.227.19.514.296.81.296h1.865c.296 0 .584-.105.81-.296L28.78 6.744v14.761c0 .228-.27.427-.578.427zM16 13.162L5.265 4.068h21.47L16 13.162z"/></symbol><symbol viewBox="0 0 42 42" id="ic-facebook" xmlns="http://www.w3.org/2000/svg"><path d="M21 0C9.4 0 0 9.4 0 21s9.4 21 21 21 21-9.4 21-21S32.6 0 21 0zm5.2 21.7h-3.4v12.2h-5.1V21.7h-2.4v-4.3h2.4v-2.8c0-2 .9-5.1 5.1-5.1h3.8v4.2h-2.7c-.4 0-1.1.2-1.1 1.2v2.5h3.9l-.5 4.3z"/></symbol><symbol viewBox="0 0 20 20" id="ic-fax" xmlns="http://www.w3.org/2000/svg"><path d="M5 15.625v3.75h10v-6.25H5v2.5zm1.25-1.25h7.5v1.25h-7.5v-1.25zm0 2.5h7.5v1.25h-7.5v-1.25zM15 4.375V.625H5v6.25h10v-2.5z"/><path d="M17.5 4.375h-1.25v3.75H3.75v-3.75H2.5c-1.25 0-2.5 1.25-2.5 2.5v6.25c0 1.25 1.25 2.5 2.5 2.5h1.25v-3.75h12.5v3.75h1.25c1.25 0 2.5-1.25 2.5-2.5v-6.25c0-1.25-1.25-2.5-2.5-2.5z"/></symbol><symbol viewBox="0 0 16 10" id="ic-filled-arrow" xmlns="http://www.w3.org/2000/svg"><path d="M9.508 9.369c-.795.841-2.22.841-3.016 0L.49 3.024C-.63 1.84.29 0 1.999 0h12.002c1.71 0 2.627 1.84 1.508 3.024l-6 6.345z"/></symbol><symbol viewBox="0 0 42 42" id="ic-google" xmlns="http://www.w3.org/2000/svg"><path d="M21 0C9.5 0 0 9.5 0 21s9.5 21 21 21 21-9.5 21-21S32.5 0 21 0zm3.1 22.4c-.1 1.7-.8 3.4-2 4.6-3.1 3-8.7 3-11.8-.1-3.2-3.2-3.2-8.7.1-11.8 2.4-2.4 5.8-2.9 8.8-1.7l1.2.7 1.3.9-2.1 2.1-.8-.5c-1.8-1.2-4.5-.9-6.2.8-2 2-2.1 5.5 0 7.6 2 2.1 5.5 2.1 7.4 0 .5-.5 1-1.3 1.2-2.1v-.3h-4.7V20H24l.1.7v1.7zm9.9-.2h-2.4v2.4h-2.4v-2.4h-2.4v-2.4h2.4v-2.4h2.4v2.4H34v2.4z"/></symbol><symbol viewBox="0 0 42 42" id="ic-linkedin" xmlns="http://www.w3.org/2000/svg"><path d="M21 0C9.4 0 0 9.4 0 21s9.4 21 21 21 21-9.4 21-21S32.6 0 21 0zm-5.2 31.2h-5.3V12.8h5.3v18.4zm-2.5-19.5c-1.4 0-2.5-1.1-2.5-2.5s1.1-2.5 2.5-2.5 2.5 1.1 2.5 2.5-1.2 2.5-2.5 2.5zm20.8 19.5h-5.3V19.8c0-1.3-.4-2.3-2-2.3-2.7 0-3.2 2.3-3.2 2.3v11.4h-5.3V12.8h5.3v1.8c.8-.6 2.6-1.8 5.3-1.8 1.7 0 5.3 1 5.3 7.2v11.2z"/></symbol><symbol viewBox="0 0 185 20" id="ic-logo" xmlns="http://www.w3.org/2000/svg"><path d="M22 19.67L26.223.348h14.533l-.49 2.206h-11.85l-1.324 6.012h11.544l-.472 2.207H26.621l-1.468 6.725h12.685l-.471 2.19H22v-.018zm18.792 0l2.646-12.146h-2.23l.4-1.842h2.228l.435-1.998c.218-.99.453-1.703.689-2.155.235-.434.616-.8 1.141-1.095C46.627.156 47.351 0 48.258 0c.634 0 1.54.122 2.754.382l-.453 2.085c-.851-.208-1.54-.312-2.12-.312-.49 0-.852.121-1.105.347-.254.226-.472.782-.653 1.65l-.326 1.495h2.773l-.417 1.877h-2.773L43.275 19.67h-2.483zm7.81 0l2.646-12.146h-2.23l.4-1.842h2.229l.434-1.998c.218-.99.453-1.703.689-2.155.236-.434.616-.8 1.142-1.095C54.437.156 55.162 0 56.068 0c.634 0 1.54.122 2.755.382l-.454 2.085c-.851-.208-1.54-.312-2.12-.312-.489 0-.851.121-1.105.347-.254.226-.471.782-.652 1.65l-.327 1.495h2.773l-.399 1.842h-2.772L51.12 19.635h-2.519v.035zm18.194-4.761l2.428.243c-.344 1.147-1.142 2.242-2.392 3.284-1.25 1.043-2.736 1.547-4.476 1.547a6.338 6.338 0 0 1-2.972-.713 4.88 4.88 0 0 1-2.066-2.085c-.47-.92-.706-1.946-.706-3.128 0-1.529.362-3.006 1.105-4.448.743-1.442 1.685-2.502 2.863-3.197a7.36 7.36 0 0 1 3.806-1.043c1.74 0 3.135.522 4.168 1.564 1.032 1.043 1.558 2.45 1.558 4.24 0 .695-.054 1.39-.2 2.102H59.168a5.727 5.727 0 0 0-.055.73c0 1.303.308 2.311.943 3.006.634.695 1.395 1.043 2.301 1.043.852 0 1.685-.278 2.519-.8.834-.556 1.468-1.337 1.92-2.345zm-7.23-3.458h8.19c.018-.243.018-.417.018-.521 0-1.2-.308-2.12-.942-2.746-.616-.643-1.431-.956-2.41-.956-1.051 0-2.03.348-2.9 1.06-.87.678-1.522 1.738-1.957 3.163zm22.252 3.11l2.483.244c-.616 1.755-1.504 3.04-2.664 3.892-1.142.851-2.464 1.268-3.914 1.268-1.577 0-2.863-.486-3.86-1.477-.978-.99-1.486-2.363-1.486-4.118 0-1.529.308-3.023.942-4.5.635-1.477 1.54-2.59 2.719-3.371 1.178-.765 2.518-1.165 4.04-1.165 1.559 0 2.81.435 3.715 1.269.925.851 1.378 1.963 1.378 3.37l-2.447.157c-.018-.886-.272-1.58-.797-2.085-.526-.504-1.232-.747-2.084-.747-.997 0-1.866.295-2.591.904-.725.608-1.305 1.529-1.722 2.762-.417 1.234-.616 2.416-.616 3.563 0 1.198.272 2.085.834 2.693.543.59 1.232.903 2.03.903.815 0 1.576-.295 2.319-.886.707-.573 1.286-1.46 1.721-2.676zm9.804 3.163l-.417 1.946a6.843 6.843 0 0 1-1.74.226c-.978 0-1.776-.226-2.355-.695-.435-.348-.67-.834-.67-1.443 0-.312.108-1.007.362-2.12l1.775-8.132H86.62l.399-1.841h1.957l.761-3.44L92.582.572l-1.105 5.092h2.446l-.417 1.841h-2.428l-1.685 7.733c-.218.973-.308 1.564-.308 1.755 0 .278.09.486.254.643.163.156.453.226.833.226a5.463 5.463 0 0 0 1.45-.14zM97.167 3.04l.598-2.71h2.464l-.598 2.71h-2.464zm-3.642 16.63l3.044-13.988h2.483L96.007 19.67h-2.483zm10.039 0l-2.392-13.988h2.41l1.25 7.715c.127.834.308 2.224.508 4.118a45.907 45.907 0 0 1 1.83-3.406l4.874-8.427h2.628l-8.354 13.988h-2.754zm21.111-4.761l2.428.243c-.344 1.147-1.142 2.242-2.392 3.284-1.25 1.043-2.736 1.547-4.476 1.547a6.34 6.34 0 0 1-2.972-.713 4.885 4.885 0 0 1-2.066-2.085c-.471-.92-.706-1.946-.706-3.128 0-1.529.362-3.006 1.105-4.448.743-1.442 1.685-2.502 2.863-3.197a7.363 7.363 0 0 1 3.806-1.043c1.739 0 3.135.522 4.168 1.564 1.033 1.043 1.558 2.45 1.558 4.24 0 .695-.054 1.39-.199 2.102h-10.746a5.795 5.795 0 0 0-.055.73c0 1.303.309 2.311.943 3.006.634.695 1.395 1.043 2.301 1.043.852 0 1.685-.278 2.519-.8.815-.556 1.468-1.337 1.921-2.345zm-7.231-3.458h8.191c.018-.243.018-.417.018-.521 0-1.2-.308-2.12-.942-2.746-.616-.643-1.431-.956-2.41-.956-1.051 0-2.03.348-2.899 1.06-.87.678-1.523 1.738-1.958 3.163zm13.011 1.946l3.951-.191c.054 1.199.272 2.016.634 2.433.598.695 1.722 1.025 3.353 1.025 1.359 0 2.337-.226 2.935-.695.598-.47.906-1.025.906-1.686 0-.573-.253-1.06-.743-1.46-.344-.295-1.304-.764-2.863-1.407-1.558-.66-2.7-1.199-3.425-1.633a4.836 4.836 0 0 1-1.703-1.686c-.417-.695-.616-1.511-.616-2.432 0-1.634.616-2.972 1.848-4.049C135.964.539 137.74.017 140.06.017c2.355 0 4.186.539 5.49 1.599 1.287 1.06 2.012 2.485 2.139 4.24l-3.969.174c-.109-.921-.453-1.634-1.051-2.12-.598-.487-1.468-.73-2.627-.73-1.142 0-1.957.191-2.447.573-.489.383-.743.869-.743 1.46 0 .556.218 1.008.671 1.373.453.364 1.431.868 2.972 1.511 2.319.956 3.787 1.738 4.421 2.329.943.886 1.414 2.015 1.414 3.388 0 1.703-.707 3.163-2.102 4.361-1.414 1.217-3.371 1.808-5.872 1.808-1.721 0-3.225-.278-4.494-.835-1.268-.555-2.174-1.337-2.682-2.328-.507-.99-.761-2.12-.725-3.423zm18.683.452c0-2.59.762-4.657 2.284-6.204 1.522-1.546 3.533-2.31 6.016-2.31 2.156 0 3.824.573 5.038 1.702 1.214 1.13 1.812 2.676 1.812 4.588 0 2.259-.761 4.222-2.265 5.873-1.504 1.65-3.534 2.485-6.071 2.485-1.377 0-2.591-.261-3.66-.8-1.052-.521-1.849-1.268-2.374-2.241a6.438 6.438 0 0 1-.78-3.093zm11.254-2.694c0-.903-.272-1.615-.816-2.154-.543-.539-1.25-.817-2.102-.817a3.62 3.62 0 0 0-2.265.765c-.652.504-1.178 1.233-1.54 2.207-.363.955-.544 1.841-.544 2.658 0 1.008.29 1.807.852 2.38.562.591 1.286.887 2.138.887 1.087 0 1.993-.452 2.718-1.338 1.033-1.269 1.559-2.798 1.559-4.588zm15.53-5.49l-.598 2.762h-2.791l-2.446 11.226h-3.951l2.446-11.226h-2.192l.598-2.762h2.192l.309-1.443c.253-1.181.489-1.963.724-2.38.308-.556.78-1.008 1.396-1.338.616-.33 1.431-.487 2.428-.487 1.214 0 2.483.209 3.824.626l-.762 2.71c-.942-.312-1.703-.469-2.301-.469-.453 0-.779.14-.997.417-.145.174-.29.643-.453 1.39l-.217.991h2.791v-.017zm.199 2.815l.598-2.815h1.921l.489-2.242 4.53-2.606-1.069 4.848H185l-.598 2.815h-2.428l-1.268 5.855c-.236 1.06-.345 1.668-.345 1.825 0 .295.091.504.29.677.199.157.544.244 1.051.244.181 0 .616-.035 1.305-.087l-.616 2.815c-.671.139-1.377.191-2.084.191-1.395 0-2.41-.26-3.044-.765-.635-.52-.943-1.233-.943-2.137 0-.434.163-1.425.508-2.971l1.214-5.63h-1.921V8.48zM20.768 1.112a.924.924 0 0 1-.904.736H5.149A.924.924 0 0 1 5.15 0h14.715a.924.924 0 0 1 .904 1.112zm-.714 3.408a.924.924 0 0 1-.905.736H4.38a.924.924 0 0 1 0-1.848h14.77a.924.924 0 0 1 .905 1.112zm-.764 3.704a.924.924 0 0 1-.903.727H3.555a.924.924 0 1 1 0-1.848h14.832c.59 0 1.028.545.902 1.12zm-.757 3.668a.924.924 0 0 1-.905.736H2.657a.924.924 0 1 1 0-1.848h14.971a.924.924 0 0 1 .905 1.112zm-.77 3.66a.924.924 0 0 1-.904.735H1.887a.924.924 0 1 1 0-1.847H16.86a.924.924 0 0 1 .904 1.112zm-.751 3.713a.924.924 0 0 1-.904.735H1.136a.924.924 0 1 1 0-1.848h14.972a.924.924 0 0 1 .904 1.113z"/></symbol><symbol viewBox="0 0 21 21" id="ic-phone" xmlns="http://www.w3.org/2000/svg"><path d="M20.99 16.573c.045.341-.06.638-.311.89l-2.957 2.936a1.664 1.664 0 0 1-.522.378 2.142 2.142 0 0 1-.634.2 2.2 2.2 0 0 0-.133.012 3.17 3.17 0 0 1-.29.011c-.281 0-.737-.048-1.367-.145-.63-.096-1.4-.333-2.312-.712-.911-.378-1.945-.945-3.1-1.701-1.157-.756-2.387-1.795-3.691-3.115-1.038-1.023-1.897-2.002-2.58-2.936-.68-.934-1.23-1.798-1.644-2.592-.415-.793-.726-1.512-.934-2.158a11.455 11.455 0 0 1-.422-1.668c-.074-.467-.104-.834-.09-1.101.016-.267.023-.415.023-.445.03-.208.096-.42.2-.634.104-.215.23-.39.378-.523L3.56.311A.979.979 0 0 1 4.272 0c.193 0 .363.056.511.167.149.111.275.248.378.411l2.38 4.516c.132.238.17.497.11.779a1.383 1.383 0 0 1-.378.712l-1.089 1.09a.371.371 0 0 0-.078.144.55.55 0 0 0-.033.167c.06.312.192.668.4 1.068.178.356.452.79.823 1.301.37.512.896 1.101 1.578 1.769.667.682 1.26 1.212 1.778 1.59.52.379.953.657 1.301.835.348.178.615.285.8.322l.278.056a.53.53 0 0 0 .145-.034.37.37 0 0 0 .144-.078l1.267-1.29c.267-.237.578-.356.934-.356.252 0 .452.045.6.134h.023l4.29 2.536c.311.193.497.437.556.734z"/></symbol><symbol viewBox="0 0 42 42" id="ic-twitter" xmlns="http://www.w3.org/2000/svg"><path d="M21 0C9.4 0 0 9.4 0 21s9.4 21 21 21 21-9.4 21-21S32.6 0 21 0zm9.4 16.2v.6c0 6.4-4.9 13.7-13.8 13.7-2.7 0-5.3-.8-7.4-2.2.4 0 .8.1 1.2.1 2.3 0 4.3-.8 6-2.1-2.1 0-3.9-1.4-4.5-3.4.3.1.6.1.9.1.4 0 .9-.1 1.3-.2-2.2-.4-3.9-2.4-3.9-4.7V18c.7.4 1.4.6 2.2.6-1.3-.9-2.1-2.3-2.1-4 0-.9.2-1.7.7-2.4 2.4 2.9 5.9 4.8 10 5.1-.1-.4-.1-.7-.1-1.1 0-2.7 2.2-4.8 4.8-4.8 1.4 0 2.6.6 3.5 1.5 1.1-.2 2.1-.6 3.1-1.2-.4 1.1-1.1 2.1-2.1 2.7 1-.1 1.9-.4 2.8-.8-.9 1.1-1.7 1.9-2.6 2.6z"/></symbol></svg>