<svg width="24" height="20" viewBox="0 0 24 20" fill="none" xmlns="http://www.w3.org/2000/svg">
    <path fill-rule="evenodd" clip-rule="evenodd"
          d="M13.2929 0.292893C13.6834 -0.0976311 14.3166 -0.0976311 14.7071 0.292893L23.7071 9.29289C24.0976 9.68342 24.0976 10.3166 23.7071 10.7071L14.7071 19.7071C14.3166 20.0976 13.6834 20.0976 13.2929 19.7071C12.9024 19.3166 12.9024 18.6834 13.2929 18.2929L20.5858 11L1 11C0.447715 11 5.96046e-08 10.5523 0 10C-1.19209e-07 9.44772 0.447715 9 1 9L20.5858 9L13.2929 1.70711C12.9024 1.31658 12.9024 0.683417 13.2929 0.292893Z"/>
</svg>
