<svg width="20" height="22" viewBox="0 0 20 22" fill="none" xmlns="http://www.w3.org/2000/svg">
    <path d="M9.23712 9.82815C9.5348 9.53048 9.5348 9.04676 9.23712 8.74908C8.93945 8.45141 8.45573 8.45141 8.15805 8.74908L4.12084 12.7863C3.43247 13.4747 3.06038 14.3677 3.06038 15.3351C3.06038 16.3026 3.43247 17.1956 4.12084 17.884C5.5348 19.2979 7.82317 19.2979 9.21852 17.884L18.3348 8.76769C19.2836 7.81885 19.8046 6.55373 19.8046 5.2142C19.8046 3.87466 19.2836 2.60955 18.3348 1.66071C16.3627 -0.311383 13.1813 -0.311383 11.2092 1.66071L2.11154 10.7584C0.883635 11.9863 0.213867 13.6049 0.213867 15.3351C0.213867 17.0654 0.883635 18.7026 2.11154 19.9119C3.33945 21.1398 4.95805 21.8095 6.68829 21.8095C8.41852 21.8095 10.0557 21.1398 11.265 19.9119L15.3022 15.8747C15.5999 15.577 15.5999 15.0933 15.3022 14.7956C15.0046 14.4979 14.5208 14.4979 14.2232 14.7956L10.186 18.8328C9.25573 19.763 8.00922 20.284 6.68829 20.284C5.36736 20.284 4.12084 19.763 3.19061 18.8328C2.26038 17.9026 1.73945 16.6561 1.73945 15.3351C1.73945 14.0142 2.26038 12.7677 3.19061 11.8375L12.2883 2.73978C12.9581 2.07001 13.8325 1.71652 14.7627 1.71652C15.6929 1.71652 16.586 2.08862 17.2371 2.73978C17.9069 3.40955 18.2604 4.28397 18.2604 5.2142C18.2604 6.14443 17.8883 7.03746 17.2371 7.68862L8.12084 16.8049C7.32084 17.6049 5.99991 17.6049 5.18131 16.8049C4.79061 16.4142 4.56736 15.8933 4.56736 15.3351C4.56736 14.777 4.79061 14.2561 5.18131 13.8654L9.23712 9.82815Z"/>
</svg>
