<svg width="36" height="28" viewBox="0 0 36 28" fill="none" xmlns="http://www.w3.org/2000/svg">
    <path fill-rule="evenodd" clip-rule="evenodd" d="M20.5859 0.585787C21.367 -0.195262 22.6333 -0.195262 23.4144 0.585786L35.4144 12.5858C35.7894 12.9609 36.0001 13.4696 36.0001 14C36.0001 14.5304 35.7894 15.0391 35.4144 15.4142L23.4144 27.4142C22.6333 28.1953 21.367 28.1953 20.5859 27.4142C19.8049 26.6332 19.8049 25.3668 20.5859 24.5858L29.1717 16H2C0.89543 16 0 15.1046 0 14C0 12.8954 0.89543 12 2 12H29.1717L20.5859 3.41421C19.8049 2.63317 19.8049 1.36684 20.5859 0.585787Z"/>
</svg>
