<svg width="36" height="28" viewBox="0 0 36 28" fill="none" xmlns="http://www.w3.org/2000/svg">
    <path fill-rule="evenodd" clip-rule="evenodd" d="M15.4141 27.4142C14.633 28.1953 13.3667 28.1953 12.5856 27.4142L0.585641 15.4142C0.210569 15.0391 -0.000143781 14.5304 -0.000143735 14C-0.000143688 13.4696 0.210569 12.9609 0.585641 12.5858L12.5856 0.585785C13.3667 -0.195265 14.633 -0.195265 15.4141 0.585785C16.1951 1.36683 16.1951 2.63316 15.4141 3.41421L6.82828 12L34 12C35.1046 12 36 12.8954 36 14C36 15.1046 35.1046 16 34 16L6.82828 16L15.4141 24.5858C16.1951 25.3668 16.1951 26.6332 15.4141 27.4142Z"/>
</svg>
