<svg width="32" height="26" viewBox="0 0 32 26" fill="none" xmlns="http://www.w3.org/2000/svg">
    <path d="M28.202 0.847618H3.79812C1.70386 0.847618 0 2.48389 0 4.49509V21.5049C0 23.5161 1.70386 25.1524 3.79812 25.1524H28.202C30.2962 25.1524 32 23.5161 32 21.5049V4.49509C32 2.48389 30.2962 0.847618 28.202 0.847618ZM28.202 21.9323H3.79812C3.49028 21.9323 3.22029 21.7326 3.22029 21.5049V6.74437L14.2575 16.0626C14.4838 16.2537 14.7715 16.3588 15.0678 16.3588L16.9319 16.3589C17.228 16.3589 17.5159 16.2537 17.7423 16.0626L28.78 6.74403V21.5051C28.7798 21.7326 28.5097 21.9323 28.202 21.9323ZM16 13.1615L5.26498 4.06774H26.7351L16 13.1615Z" fill="url(#linear-gradient-1)"/>
</svg>
