<svg width="20" height="20" viewBox="0 0 20 20" fill="none" xmlns="http://www.w3.org/2000/svg">
    <path d="M5 15.625V19.375H15V15.625V13.125H5V15.625ZM6.25 14.375H13.75V15.625H6.25V14.375ZM6.25 16.875H13.75V18.125H6.25V16.875Z" fill="#A1A7B2"/>
    <path d="M15 4.375V0.625H5V4.375V6.875H15V4.375Z" fill="#A1A7B2"/>
    <path d="M17.5 4.375H16.25V6.875V8.125H3.75V6.875V4.375H2.5C1.25 4.375 0 5.625 0 6.875V13.125C0 14.375 1.25 15.625 2.5 15.625H3.75V13.125V11.875H16.25V13.125V15.625H17.5C18.75 15.625 20 14.375 20 13.125V6.875C20 5.625 18.75 4.375 17.5 4.375Z" fill="#A1A7B2"/>
</svg>
