<?xml version="1.0" encoding="utf-8"?>
<!-- Generator: Adobe Illustrator 21.0.0, SVG Export Plug-In . SVG Version: 6.00 Build 0)  -->
<svg version="1.1" id="Layer_1" xmlns="http://www.w3.org/2000/svg" xmlns:xlink="http://www.w3.org/1999/xlink" x="0px" y="0px"
	 viewBox="0 0 42 42" style="enable-background:new 0 0 42 42;" xml:space="preserve">
<path d="M21,0C9.4,0,0,9.4,0,21c0,11.6,9.4,21,21,21c11.6,0,21-9.4,21-21C42,9.4,32.6,0,21,0z M26.2,21.7h-3.4
	c0,5.5,0,12.2,0,12.2h-5.1c0,0,0-6.7,0-12.2h-2.4v-4.3h2.4v-2.8c0-2,0.9-5.1,5.1-5.1l3.8,0v4.2c0,0-2.3,0-2.7,0
	c-0.4,0-1.1,0.2-1.1,1.2v2.5h3.9L26.2,21.7z"/>
</svg>
