<?xml version="1.0" encoding="utf-8"?>
<!-- Generator: Adobe Illustrator 21.0.0, SVG Export Plug-In . SVG Version: 6.00 Build 0)  -->
<svg version="1.1" id="Layer_1" xmlns="http://www.w3.org/2000/svg" xmlns:xlink="http://www.w3.org/1999/xlink" x="0px" y="0px"
	 viewBox="0 0 42 42" style="enable-background:new 0 0 42 42;" xml:space="preserve">

<path d="M21,0C9.5,0,0,9.5,0,21s9.5,21,21,21s21-9.5,21-21S32.5,0,21,0z M24.1,22.4c-0.1,1.7-0.8,3.4-2,4.6
	c-3.1,3-8.7,3-11.8-0.1c-3.2-3.2-3.2-8.7,0.1-11.8c2.4-2.4,5.8-2.9,8.8-1.7l1.2,0.7l1.3,0.9l-2.1,2.1l-0.8-0.5
	c-1.8-1.2-4.5-0.9-6.2,0.8c-2,2-2.1,5.5,0,7.6c2,2.1,5.5,2.1,7.4,0c0.5-0.5,1-1.3,1.2-2.1v-0.3h-4.7V20H24l0.1,0.7V22.4z M34,22.2
	h-2.4v2.4h-2.4v-2.4h-2.4v-2.4h2.4v-2.4h2.4v2.4H34V22.2z"/>
</svg>
