<?xml version="1.0" encoding="utf-8"?>
<!-- Generator: Adobe Illustrator 21.0.0, SVG Export Plug-In . SVG Version: 6.00 Build 0)  -->
<svg version="1.1" id="Layer_1" xmlns="http://www.w3.org/2000/svg" xmlns:xlink="http://www.w3.org/1999/xlink" x="0px" y="0px"
	 viewBox="0 0 42 42" style="enable-background:new 0 0 42 42;" xml:space="preserve">
<path d="M21,0C9.4,0,0,9.4,0,21s9.4,21,21,21c11.6,0,21-9.4,21-21C42,9.4,32.6,0,21,0z M15.8,31.2h-5.3V12.8h5.3V31.2z
	 M13.3,11.7c-1.4,0-2.5-1.1-2.5-2.5s1.1-2.5,2.5-2.5c1.4,0,2.5,1.1,2.5,2.5C15.8,10.6,14.6,11.7,13.3,11.7z M34.1,31.2h-5.3V19.8
	c0-1.3-0.4-2.3-2-2.3c-2.7,0-3.2,2.3-3.2,2.3v11.4h-5.3V12.8h5.3v1.8c0.8-0.6,2.6-1.8,5.3-1.8c1.7,0,5.3,1,5.3,7.2V31.2z"/>
</svg>
