<svg width="185" height="20" viewBox="0 0 185 20" fill="none" xmlns="http://www.w3.org/2000/svg">
	<path d="M22.0002 19.6698L26.2225 0.347501H40.7557L40.2664 2.55428H28.4151L27.0923 8.56644H38.6355L38.1643 10.7732H26.6211L25.1533 17.4978H37.8382L37.367 19.6872H22.0002V19.6698ZM40.7919 19.6698L43.4376 7.52387H41.2087L41.6074 5.68199H43.8363L44.2712 3.68373C44.4886 2.69329 44.7242 1.98086 44.9598 1.52908C45.1954 1.09468 45.5759 0.729777 46.1014 0.434382C46.6269 0.156363 47.3518 -2.28884e-05 48.2578 -2.28884e-05C48.8921 -2.28884e-05 49.7981 0.12161 51.0123 0.382253L50.5592 2.4674C49.7075 2.25888 49.0189 2.15463 48.439 2.15463C47.9498 2.15463 47.5873 2.27626 47.3336 2.50215C47.08 2.72804 46.8625 3.28408 46.6813 4.15289L46.3551 5.64724H49.1276L48.7109 7.52387H45.9383L43.2745 19.6698H40.7919ZM48.6021 19.6698L51.2478 7.52387H49.0189L49.4176 5.68199H51.6465L52.0814 3.68373C52.2989 2.69329 52.5344 1.98086 52.77 1.52908C53.0056 1.09468 53.3861 0.729777 53.9116 0.434382C54.4372 0.156363 55.162 -2.28884e-05 56.0681 -2.28884e-05C56.7023 -2.28884e-05 57.6084 0.12161 58.8225 0.382253L58.3694 2.4674C57.5177 2.25888 56.8291 2.15463 56.2493 2.15463C55.76 2.15463 55.3976 2.27626 55.1439 2.50215C54.8902 2.72804 54.6727 3.28408 54.4915 4.15289L54.1653 5.64724H56.9379L56.5392 7.48912H53.7667L51.121 19.6351H48.6021V19.6698ZM66.7958 14.9088L69.224 15.152C68.8797 16.2988 68.0824 17.3935 66.832 18.4361C65.5817 19.4787 64.0957 19.9826 62.3561 19.9826C61.2688 19.9826 60.2903 19.7393 59.3842 19.2702C58.4782 18.7836 57.7896 18.0886 57.3184 17.185C56.8473 16.2641 56.6117 15.2389 56.6117 14.0573C56.6117 12.5282 56.9741 11.0512 57.7171 9.60901C58.4601 8.16679 59.4024 7.10684 60.5802 6.41179C61.7581 5.71674 63.0266 5.36922 64.3857 5.36922C66.1253 5.36922 67.5206 5.89051 68.5536 6.93308C69.5865 7.97565 70.112 9.38312 70.112 11.1729C70.112 11.8679 70.0576 12.563 69.9126 13.2754H59.1668C59.1305 13.5534 59.1124 13.7967 59.1124 14.0052C59.1124 15.3084 59.4205 16.3162 60.0547 17.0113C60.689 17.7063 61.45 18.0538 62.3561 18.0538C63.2078 18.0538 64.0414 17.7758 64.875 17.2545C65.7085 16.6985 66.3428 15.9166 66.7958 14.9088ZM59.5654 11.4509H67.7562C67.7743 11.2076 67.7743 11.0339 67.7743 10.9296C67.7743 9.73065 67.4663 8.80971 66.832 8.18417C66.2159 7.54125 65.4005 7.22847 64.4219 7.22847C63.3709 7.22847 62.3924 7.576 61.5225 8.28842C60.6527 8.96609 60.0004 10.026 59.5654 11.4509ZM81.8183 14.5612L84.3009 14.8045C83.6847 16.5595 82.7968 17.8453 81.637 18.6968C80.4954 19.5482 79.1726 19.9652 77.7229 19.9652C76.1463 19.9652 74.8597 19.4787 73.8631 18.4882C72.8845 17.4978 72.3771 16.1251 72.3771 14.3701C72.3771 12.841 72.6852 11.3466 73.3194 9.86966C73.9537 8.39268 74.8597 7.2806 76.0376 6.49867C77.2155 5.73412 78.5564 5.33447 80.0786 5.33447C81.637 5.33447 82.8874 5.76887 83.7935 6.60293C84.7176 7.45436 85.1707 8.56644 85.1707 9.97391L82.7243 10.1303C82.7062 9.24411 82.4525 8.54906 81.927 8.04516C81.4015 7.54125 80.6947 7.29798 79.843 7.29798C78.8464 7.29798 77.9766 7.59337 77.2517 8.20154C76.5269 8.80971 75.947 9.73065 75.5302 10.9644C75.1134 12.1981 74.9141 13.3796 74.9141 14.5265C74.9141 15.7254 75.1859 16.6116 75.7477 17.2198C76.2913 17.8106 76.9799 18.1233 77.7772 18.1233C78.5927 18.1233 79.3538 17.828 80.0967 17.2372C80.8035 16.6637 81.3833 15.7776 81.8183 14.5612ZM91.6218 17.7237L91.205 19.6698C90.607 19.8262 90.0271 19.8957 89.4654 19.8957C88.4868 19.8957 87.6895 19.6698 87.1096 19.2007C86.6747 18.8531 86.4392 18.3666 86.4392 17.7584C86.4392 17.4457 86.5479 16.7506 86.8016 15.6386L88.5775 7.50649H86.6204L87.019 5.66462H88.9761L89.7372 2.22413L92.5822 0.573392L91.4768 5.66462H93.9232L93.5064 7.50649H91.0782L89.3929 15.2389C89.1755 16.212 89.0848 16.8028 89.0848 16.9939C89.0848 17.2719 89.1755 17.4804 89.3385 17.6368C89.5016 17.7932 89.7916 17.8627 90.1721 17.8627C90.6976 17.8801 91.1869 17.828 91.6218 17.7237ZM97.1669 3.04081L97.7649 0.330125H100.229L99.6314 3.04081H97.1669ZM93.5245 19.6698L96.5689 5.68199H99.0515L96.0071 19.6698H93.5245ZM103.564 19.6698L101.172 5.68199H103.582L104.832 13.397C104.959 14.2311 105.14 15.6212 105.34 17.5152C105.811 16.5247 106.427 15.3779 107.17 14.1094L112.044 5.68199H114.672L106.318 19.6698H103.564ZM124.675 14.9088L127.103 15.152C126.759 16.2988 125.961 17.3935 124.711 18.4361C123.461 19.4787 121.975 19.9826 120.235 19.9826C119.148 19.9826 118.169 19.7393 117.263 19.2702C116.357 18.7836 115.669 18.0886 115.197 17.185C114.726 16.2641 114.491 15.2389 114.491 14.0573C114.491 12.5282 114.853 11.0512 115.596 9.60901C116.339 8.16679 117.281 7.10684 118.459 6.41179C119.637 5.71674 120.906 5.36922 122.265 5.36922C124.004 5.36922 125.4 5.89051 126.433 6.93308C127.466 7.97565 127.991 9.38312 127.991 11.1729C127.991 11.8679 127.937 12.563 127.792 13.2754H117.046C117.01 13.5534 116.991 13.7967 116.991 14.0052C116.991 15.3084 117.3 16.3162 117.934 17.0113C118.568 17.7063 119.329 18.0538 120.235 18.0538C121.087 18.0538 121.92 17.7758 122.754 17.2545C123.569 16.6985 124.222 15.9166 124.675 14.9088ZM117.444 11.4509H125.635C125.653 11.2076 125.653 11.0339 125.653 10.9296C125.653 9.73065 125.345 8.80971 124.711 8.18417C124.095 7.54125 123.28 7.22847 122.301 7.22847C121.25 7.22847 120.271 7.576 119.402 8.28842C118.532 8.96609 117.879 10.026 117.444 11.4509ZM130.455 13.397L134.406 13.2059C134.46 14.4048 134.678 15.2215 135.04 15.6386C135.638 16.3336 136.762 16.6637 138.393 16.6637C139.752 16.6637 140.73 16.4379 141.328 15.9687C141.926 15.4995 142.234 14.9435 142.234 14.2832C142.234 13.7098 141.981 13.2233 141.491 12.8236C141.147 12.5282 140.187 12.0591 138.628 11.4161C137.07 10.7558 135.928 10.2172 135.203 9.78277C134.478 9.34837 133.917 8.79233 133.5 8.09728C133.083 7.40224 132.884 6.58555 132.884 5.66462C132.884 4.03125 133.5 2.69329 134.732 1.61596C135.964 0.538639 137.74 0.0173533 140.06 0.0173533C142.415 0.0173533 144.246 0.556015 145.55 1.61596C146.837 2.67591 147.562 4.10076 147.689 5.85575L143.72 6.02952C143.611 5.10858 143.267 4.39615 142.669 3.90962C142.071 3.42309 141.201 3.17982 140.042 3.17982C138.9 3.17982 138.085 3.37096 137.595 3.75324C137.106 4.13551 136.852 4.62205 136.852 5.21284C136.852 5.76887 137.07 6.22065 137.523 6.58555C137.976 6.95045 138.954 7.45436 140.495 8.09728C142.814 9.05297 144.282 9.8349 144.916 10.4257C145.859 11.3119 146.33 12.4413 146.33 13.8141C146.33 15.5169 145.623 16.9765 144.228 18.1755C142.814 19.3918 140.857 19.9826 138.356 19.9826C136.635 19.9826 135.131 19.7046 133.862 19.1485C132.594 18.5925 131.688 17.8106 131.18 16.8201C130.673 15.8297 130.419 14.7002 130.455 13.397ZM149.138 13.8488C149.138 11.2598 149.9 9.19198 151.422 7.6455C152.944 6.09902 154.955 5.33447 157.438 5.33447C159.594 5.33447 161.262 5.90788 162.476 7.03734C163.69 8.16679 164.288 9.71327 164.288 11.6247C164.288 13.8836 163.527 15.8471 162.023 17.4978C160.519 19.1485 158.489 19.9826 155.952 19.9826C154.575 19.9826 153.361 19.722 152.292 19.1833C151.24 18.662 150.443 17.9148 149.918 16.9418C149.41 16.0035 149.138 14.9609 149.138 13.8488ZM160.392 11.1555C160.392 10.2519 160.12 9.53951 159.576 9.00085C159.033 8.46218 158.326 8.18417 157.474 8.18417C156.622 8.18417 155.861 8.44481 155.209 8.94872C154.557 9.45263 154.031 10.1824 153.669 11.1555C153.306 12.1112 153.125 12.9974 153.125 13.8141C153.125 14.8219 153.415 15.6212 153.977 16.1946C154.539 16.7854 155.263 17.0808 156.115 17.0808C157.202 17.0808 158.108 16.629 158.833 15.7428C159.866 14.4743 160.392 12.9452 160.392 11.1555ZM175.922 5.66462L175.324 8.42743H172.533L170.087 19.6525H166.136L168.582 8.42743H166.39L166.988 5.66462H169.18L169.489 4.22239C169.742 3.04081 169.978 2.25888 170.213 1.84185C170.521 1.28582 170.993 0.834034 171.609 0.503887C172.225 0.173739 173.04 0.0173533 174.037 0.0173533C175.251 0.0173533 176.52 0.225868 177.861 0.642896L177.099 3.35358C176.157 3.04081 175.396 2.88443 174.798 2.88443C174.345 2.88443 174.019 3.02344 173.801 3.30145C173.656 3.47522 173.511 3.94437 173.348 4.69155L173.131 5.68199H175.922V5.66462ZM176.121 8.47956L176.719 5.66462H178.64L179.129 3.42309L183.659 0.816658L182.59 5.66462H185L184.402 8.47956H181.974L180.706 14.3353C180.47 15.3953 180.361 16.0035 180.361 16.1598C180.361 16.4552 180.452 16.6637 180.651 16.8375C180.85 16.9939 181.195 17.0808 181.702 17.0808C181.883 17.0808 182.318 17.046 183.007 16.9939L182.391 19.8088C181.72 19.9478 181.014 20 180.307 20C178.912 20 177.897 19.7393 177.263 19.2354C176.628 18.7141 176.32 18.0017 176.32 17.0982C176.32 16.6637 176.483 15.6733 176.828 14.1268L178.042 8.49694H176.121V8.47956Z"/>
	<path d="M20.7684 1.11212C20.6791 1.54051 20.3016 1.84753 19.864 1.84753H5.14909C4.56315 1.84753 4.12525 1.30902 4.24473 0.735393C4.33396 0.307006 4.71151 -7.63153e-06 5.14909 -7.63153e-06H19.864C20.4499 -7.63153e-06 20.8878 0.538495 20.7684 1.11212ZM20.0537 4.5202C19.9645 4.94858 19.5869 5.2556 19.1493 5.2556H4.37946C3.79352 5.2556 3.35562 4.71709 3.4751 4.14347C3.56433 3.71508 3.94187 3.40806 4.37946 3.40806H19.1493C19.7353 3.40806 20.1732 3.94657 20.0537 4.5202ZM19.2895 8.22383C19.1969 8.64814 18.8213 8.95066 18.387 8.95066H3.55485C2.96891 8.95066 2.53101 8.41216 2.65049 7.83853C2.73972 7.41014 3.11727 7.10313 3.55485 7.10313H18.387C18.9765 7.10313 19.4152 7.64786 19.2895 8.22383ZM18.5328 11.8924C18.4435 12.3208 18.066 12.6278 17.6284 12.6278H2.65694C2.071 12.6278 1.63311 12.0893 1.75258 11.5157C1.84181 11.0873 2.21936 10.7803 2.65694 10.7803H17.6284C18.2143 10.7803 18.6522 11.3188 18.5328 11.8924ZM17.7631 15.5516C17.6739 15.98 17.2963 16.287 16.8588 16.287H1.88731C1.30137 16.287 0.863472 15.7485 0.982951 15.1749C1.07218 14.7465 1.44973 14.4395 1.88731 14.4395H16.8588C17.4447 14.4395 17.8826 14.978 17.7631 15.5516ZM17.0118 19.2646C16.9226 19.693 16.545 20 16.1075 20H1.136C0.550061 20 0.112163 19.4615 0.231642 18.8879C0.32087 18.4595 0.698419 18.1525 1.136 18.1525H16.1075C16.6934 18.1525 17.1313 18.691 17.0118 19.2646Z" />
</svg>
