<svg width="21" height="21" viewBox="0 0 21 21" fill="none" xmlns="http://www.w3.org/2000/svg">
    <path d="M20.99 16.5731C21.0345 16.9142 20.9306 17.2108 20.6788 17.4629L17.722 20.3992C17.5886 20.5475 17.4145 20.6737 17.1996 20.7774C16.9847 20.8812 16.7735 20.948 16.5661 20.9776C16.5513 20.9776 16.5067 20.9814 16.4326 20.9888C16.3586 20.9962 16.2623 21 16.1437 21C15.862 21 15.4062 20.9518 14.7764 20.8554C14.1465 20.7589 13.3758 20.5216 12.4644 20.1435C11.5528 19.7653 10.5191 19.198 9.36309 18.4417C8.2071 17.6855 6.97694 16.6473 5.67271 15.3273C4.63525 14.304 3.77564 13.3252 3.09388 12.3909C2.41213 11.4565 1.86375 10.5927 1.44877 9.79924C1.03375 9.00581 0.722515 8.28653 0.515024 7.64141C0.307532 6.99628 0.166734 6.44014 0.0926301 5.97298C0.018526 5.50582 -0.0111156 5.13876 0.00370521 4.87181C0.018526 4.60487 0.0259364 4.45656 0.0259364 4.4269C0.0555781 4.21927 0.122272 4.00794 0.226018 3.7929C0.329763 3.57785 0.45574 3.4036 0.603949 3.27012L3.5607 0.31144C3.76819 0.103813 4.00533 -2.33991e-10 4.2721 -2.33991e-10C4.46477 -2.33991e-10 4.63521 0.0556143 4.78342 0.166843C4.93163 0.278072 5.05761 0.415254 5.16135 0.578389L7.54009 5.09427C7.67348 5.33156 7.71053 5.59109 7.65125 5.87287C7.59197 6.15465 7.46599 6.39194 7.27332 6.58473L6.18399 7.67477C6.15435 7.70444 6.12841 7.75263 6.10618 7.81937C6.08395 7.88611 6.07283 7.94172 6.07283 7.98621C6.13212 8.29766 6.2655 8.65359 6.47299 9.05401C6.65084 9.40994 6.92503 9.84373 7.29555 10.3554C7.66607 10.867 8.19221 11.4565 8.87397 12.1239C9.5409 12.8062 10.1337 13.3363 10.6525 13.7145C11.1711 14.0926 11.6047 14.3707 11.953 14.5487C12.3013 14.7267 12.5681 14.8342 12.7533 14.8712L13.0311 14.9268C13.0608 14.9268 13.1091 14.9156 13.1757 14.8934C13.2424 14.8712 13.2905 14.8452 13.3202 14.8155L14.5874 13.5253C14.8543 13.288 15.1654 13.1694 15.5211 13.1694C15.7731 13.1694 15.9731 13.2139 16.1213 13.3029H16.1435L20.4341 15.8389C20.7454 16.0318 20.9307 16.2765 20.99 16.5731Z" fill="white"/>
</svg>
